<?xml version="1.0" encoding="UTF-8" standalone="no"?>
<!-- Created with Inkscape (http://www.inkscape.org/) -->

<svg
   id="svg5742"
   version="1.1"
   viewBox="0 0 150.03394 33.866664"
   height="127.99999"
   width="567.05743"
   xmlns="http://www.w3.org/2000/svg"
   xmlns:svg="http://www.w3.org/2000/svg">
  <defs
     id="defs5739" />
  <g
     id="layer1"
     transform="translate(-6.8562208,-66.451141)">
    <g
       id="logo-text">
      <g
         id="logo-square"
         transform="matrix(0.71559696,0,0,0.71559696,-106.48942,34.344998)">
        <rect
           style="fill:#064c5c;fill-opacity:1;stroke-width:0;stroke-linecap:square;stroke-miterlimit:0;paint-order:fill markers stroke"
           id="rect4610-2-2"
           width="47.326454"
           height="47.326454"
           x="158.39313"
           y="44.866241"
           ry="8.2396049" />
        <g
           id="logo-dark"
           transform="matrix(1.3974346,0,0,1.3974346,40.468522,-76.545189)">
          <path
             id="rect13-9-3-5-7-4-6"
             style="fill:#fbce55;fill-opacity:1;stroke-width:0;stroke-linecap:square;stroke-miterlimit:0;paint-order:fill markers stroke"
             d="m 108.54996,98.172293 -11.003974,5.131467 2e-6,7.88221 14.022912,-6.53914 z" />
          <path
             id="rect13-9-1-0-3-5-1"
             style="fill:#46bbd6;fill-opacity:1;stroke-width:0;stroke-linecap:square;stroke-miterlimit:0;paint-order:fill markers stroke"
             d="m 97.546058,103.4689 v 7.88272 l 11.672672,5.44308 -0.6997,-4.26796 3.71863,-2.20658 z" />
          <rect
             style="fill:#fffaef;fill-opacity:1;stroke-width:0;stroke-linecap:square;stroke-miterlimit:0;paint-order:fill markers stroke"
             id="rect13-3-6-0-5"
             width="7.1437497"
             height="21.166666"
             x="90.402222"
             y="94.776642" />
          <path
             id="rect13-3-9-1-3-5"
             style="mix-blend-mode:normal;fill:#000000;fill-opacity:0.313725;stroke-width:0;stroke-linecap:square;stroke-miterlimit:0;paint-order:fill markers stroke"
             d="m 90.401989,94.776392 v 0.456303 l 20.677291,9.642305 0.48989,-0.22841 z" />
          <path
             id="rect13-9-6-2-6-4"
             style="fill:#46bbd6;fill-opacity:1;stroke-width:0;stroke-linecap:square;stroke-miterlimit:0;paint-order:fill markers stroke"
             d="m 97.545986,90.835278 -7.143758,3.941361 21.166662,9.870191 v -7.8822 z" />
          <rect
             style="fill:#000000;fill-opacity:0;stroke-width:0;stroke-linecap:square;stroke-miterlimit:0;paint-order:fill markers stroke"
             id="rect2-3"
             width="26.458332"
             height="26.458332"
             x="88.09066"
             y="90.585823" />
        </g>
      </g>
      <path
         d="m 60.621105,90.167542 v -13.82892 h 4.958656 q 1.738493,0 2.983096,0.553156 1.244602,0.553157 1.916293,1.600204 0.67169,1.027291 0.67169,2.508961 0,1.442159 -0.67169,2.489206 -0.671691,1.027291 -1.916293,1.600203 -1.244603,0.553157 -2.983096,0.553157 h -4.405499 l 0.454379,-0.474134 v 4.998167 z m 9.601222,0 -3.595519,-5.017923 h 1.145825 l 3.595519,5.017923 z m -8.593686,-4.9389 -0.454379,-0.474135 h 4.405499 q 2.232383,0 3.378208,-0.98778 1.16558,-0.98778 1.16558,-2.765784 0,-1.797759 -1.16558,-2.765784 -1.145825,-0.98778 -3.378208,-0.98778 h -4.405499 l 0.454379,-0.49389 z m 14.105485,-2.528717 h 7.487372 v 0.889002 h -7.487372 z m 0.118533,6.558859 h 8.534419 v 0.908758 h -9.541954 v -13.82892 h 9.24562 v 0.908757 h -8.238085 z m 9.897568,0.908758 6.361303,-13.82892 h 1.007536 l 6.361303,13.82892 H 98.393811 L 92.388109,76.970801 h 0.434623 l -5.985947,13.196741 z m 2.331161,-3.891854 0.335845,-0.84949 h 8.277597 l 0.335845,0.84949 z m 13.907942,3.891854 v -13.82892 h 5.4723 q 2.19287,0 3.85234,0.889002 1.65947,0.889002 2.56823,2.449694 0.92851,1.560692 0.92851,3.575764 0,2.015071 -0.92851,3.575763 -0.90876,1.560693 -2.56823,2.449695 -1.65947,0.889002 -3.85234,0.889002 z m 1.00754,-0.908758 h 4.38574 q 1.9558,0 3.39796,-0.770468 1.44216,-0.770469 2.23239,-2.11385 0.79022,-1.363136 0.79022,-3.121384 0,-1.758249 -0.79022,-3.10163 -0.79023,-1.363136 -2.23239,-2.133604 -1.44216,-0.770469 -3.39796,-0.770469 h -4.38574 z m 16.19959,-6.558859 h 7.48738 v 0.889002 h -7.48738 z m 0.11854,6.558859 h 8.53442 v 0.908758 h -9.54196 v -13.82892 h 9.24562 v 0.908757 H 119.315 Z m 17.99735,1.007536 q -1.54093,0 -2.86456,-0.513646 -1.30387,-0.533401 -2.27189,-1.48167 -0.96803,-0.948269 -1.50143,-2.212627 -0.5334,-1.284114 -0.5334,-2.805295 0,-1.521182 0.5334,-2.78554 0.5334,-1.284114 1.50143,-2.232383 0.98778,-0.948269 2.29165,-1.461914 1.30387,-0.533401 2.8448,-0.533401 1.46192,0 2.72628,0.474134 1.28411,0.474134 2.19287,1.442159 l -0.63218,0.651935 q -0.889,-0.869247 -1.97556,-1.244603 -1.0668,-0.395112 -2.2719,-0.395112 -1.32362,0 -2.46945,0.454379 -1.12607,0.454378 -1.97556,1.284114 -0.82973,0.829735 -1.30387,1.936048 -0.45437,1.106314 -0.45437,2.410184 0,1.303869 0.45437,2.410183 0.47414,1.106313 1.30387,1.936049 0.84949,0.829735 1.97556,1.284114 1.14583,0.454378 2.46945,0.454378 1.2051,0 2.2719,-0.375356 1.08656,-0.395112 1.97556,-1.284114 l 0.63218,0.651935 q -0.90876,0.968024 -2.19287,1.461914 -1.26436,0.474135 -2.72628,0.474135 z m 9.1666,-3.59552 -0.0395,-1.264358 8.811,-9.06782 h 1.22485 l -6.16375,6.381058 -0.57291,0.612424 z m -0.86925,3.496742 v -13.82892 h 1.00754 v 13.82892 z m 10.0556,0 -6.22301,-7.112016 0.69144,-0.730958 6.75642,7.842974 z"
         id="text1"
         aria-label="READECK"
         style="font-weight:300;font-size:19.7556px;line-height:1.25;font-family:Montserrat;-inkscape-font-specification:'Montserrat, Light';stroke-width:0.264583" />
      <rect
         id="rect1"
         width="0.26458332"
         height="21.166666"
         x="50.648361"
         y="72.801147"
         style="fill:#000000;fill-opacity:0.328714;stroke-width:0;stroke-linecap:square;stroke-miterlimit:0;paint-order:fill markers stroke" />
    </g>
  </g>
</svg>
