<?xml version="1.0" encoding="UTF-8" standalone="no"?>
<!-- Created with Inkscape (http://www.inkscape.org/) -->

<svg
   width="24"
   height="24"
   viewBox="0 0 24 24"
   version="1.1"
   id="svg1"
   xmlns="http://www.w3.org/2000/svg"
   xmlns:svg="http://www.w3.org/2000/svg">
    <path d="M 14.323219,2.0142456 A 0.31155973,0.31155973 0 0 0 13.976352,2.1307622 L 6.5261892,12.578545 a 0.31155973,0.31155973 0 0 0 0.253347,0.492512 H 12.408744 A 0.31152859,0.31152859 0 0 0 12.720349,12.759452 0.31152859,0.31152859 0 0 0 12.408744,12.44823 H 7.3843492 l 6.5448598,-9.1783648 0.06822,6.0025211 A 0.31152859,0.31152859 0 0 0 14.312487,9.5805421 0.31152859,0.31152859 0 0 0 14.62026,9.2654875 L 14.541688,2.3078368 A 0.31155973,0.31155973 0 0 0 14.323219,2.0142456 Z" />
    <path d="m 9.6767821,21.985754 a 0.31155973,0.31155973 0 0 0 0.3468669,-0.116516 l 7.450162,-10.447781 a 0.31155973,0.31155973 0 0 0 -0.253346,-0.492513 h -5.629208 a 0.31152859,0.31152859 0 0 0 -0.311605,0.311606 0.31152859,0.31152859 0 0 0 0.311605,0.311221 h 5.024395 l -6.54486,9.178365 -0.06822,-6.002521 A 0.31152859,0.31152859 0 0 0 9.6875122,14.419459 0.31152859,0.31152859 0 0 0 9.3797417,14.734514 l 0.078572,6.95765 a 0.31155973,0.31155973 0 0 0 0.2184684,0.29359 z" />
</svg>
